<svg width="19" height="21" viewBox="0 0 19 21" fill="none" xmlns="http://www.w3.org/2000/svg">
<g clip-path="url(#clip0_3_157)">
<path d="M11.2844 13.066C12.5032 11.7517 12.4995 9.6618 11.2794 8.352C10.0593 7.0422 8.11692 7.043 6.89812 8.35735C5.67931 9.6717 5.68298 11.7616 6.90309 13.0714C8.1232 14.3812 10.0656 14.3804 11.2844 13.066Z" fill="white"/>
<path d="M14.1962 2.35296C13.1824 1.63451 12.0469 1.13824 10.8546 0.892538C9.68228 0.650175 8.47764 0.651646 7.3058 0.896869C6.11414 1.14576 4.97973 1.64478 3.96734 2.36544C3.43645 2.74497 2.94314 3.18207 2.49514 3.66989L1.03159 2.09875L0.32541 7.5797L5.41785 6.80745L3.95723 5.23945C4.30879 4.85718 4.69544 4.51259 5.10624 4.2206C5.89313 3.66054 6.7748 3.27263 7.70095 3.07899C8.61324 2.88685 9.55139 2.88571 10.4641 3.07562C11.8785 3.36765 13.1789 4.1097 14.197 5.20574C14.881 5.94034 15.4219 6.81447 15.7879 7.77688C15.963 8.2418 16.0965 8.7236 16.1867 9.21575C16.2745 9.70692 16.3192 10.2059 16.3204 10.706C16.3207 12.2257 15.9089 13.7124 15.1354 14.9839C14.5936 15.8639 13.8938 16.6186 13.0771 17.2036C12.2897 17.7638 11.4076 18.1517 10.4809 18.3452C9.56958 18.537 8.63244 18.5381 7.7207 18.3486C6.30604 18.0549 5.0053 17.3128 3.98559 16.2177L2.52682 17.7908C3.83887 19.1976 5.51095 20.1516 7.32942 20.5309C8.50093 20.7716 9.70434 20.7702 10.8753 20.5265C12.694 20.1471 14.3647 19.1883 15.6707 17.7747C16.115 17.2955 16.5135 16.7693 16.86 16.2043C17.5256 15.1127 17.9865 13.8916 18.2166 12.6097C18.3299 11.9806 18.3859 11.3412 18.384 10.7004C18.3825 10.0591 18.3251 9.41949 18.2126 8.7898C17.8596 6.83402 16.9688 5.03737 15.6558 3.63261C15.2103 3.15451 14.7213 2.7258 14.1962 2.35296Z" fill="white"/>
</g>
<defs>
<clipPath id="clip0_3_157">
<rect width="19" height="21" fill="white"/>
</clipPath>
</defs>
</svg>
